<svg width="50" height="46" viewBox="0 0 50 46" fill="none" xmlns="http://www.w3.org/2000/svg">
<path d="M45.2969 32.8585C43.7711 35.5325 44.4864 38.2907 48.5368 40.3967C48.2013 41.9513 47.6565 43.4616 46.919 44.8711C45.3766 44.054 43.8564 43.1704 42.5697 41.9934C41.1824 40.7245 40.074 39.0713 39.775 37.2156C39.455 35.2269 40.084 33.1973 40.9886 31.398C41.8943 29.5987 43.078 27.9512 43.9881 26.1541C44.8972 24.3581 45.535 22.3318 45.2294 20.3421C44.9227 18.3512 42.9606 17.4854 41.2134 15.8599L40.3829 15.6573L40.5069 15.293C40.1969 15.3074 39.8957 15.1801 39.6178 15.0383C39.1328 14.7914 38.6578 14.4781 38.3389 14.0451C38.2714 13.9532 38.2105 13.8569 38.1584 13.7539C37.8617 13.166 37.9292 12.3532 38.4574 11.959L38.742 11.8627C38.7187 11.7675 38.7065 11.67 38.7065 11.5715C38.7065 11.2161 38.9036 10.8429 39.2391 10.7256L39.5314 10.617C39.5071 10.5395 39.4894 10.4609 39.4794 10.379C39.4395 10.0413 39.5702 9.66481 39.868 9.49983L40.1914 9.42121C40.1615 9.38357 40.1349 9.34481 40.1083 9.30495C39.9544 9.07021 39.8658 8.71921 40.0806 8.53873C40.2046 8.43354 40.3818 8.43243 40.5457 8.44018L40.7671 8.18773C41.2964 7.74483 42.0538 7.59202 42.7137 7.79576L43.1223 7.87548L43.0392 8.22759L42.8986 8.71478C43.0658 8.75686 43.2308 8.80668 43.3935 8.86426C43.9151 9.05028 44.4144 9.34149 44.8075 9.72681L45.0655 9.05471L45.2969 9.35588C46.2901 10.7012 45.7985 12.6865 46.6411 14.1304C48.4227 17.1853 50.1943 18.9569 49.6628 22.5865C49.1313 26.2172 46.8637 30.1136 45.2969 32.8585ZM28.3881 10.6672L28.3261 9.95192C28.5365 9.24328 28.3106 8.42391 27.7658 7.92343C27.2222 7.42295 26.3873 7.26571 25.6986 7.53367C25.3852 6.93243 24.6854 6.55707 24.0111 6.63015C23.3379 6.70212 22.7334 7.2181 22.5562 7.87249L21.7988 8.10059C21.2563 8.09726 20.727 8.44605 20.5166 8.94542C20.3062 9.4459 20.4258 10.0682 20.8078 10.4535C20.0571 10.5631 19.4946 11.3891 19.6685 12.1288C19.8423 12.8673 20.7137 13.3556 21.4345 13.1198C21.1622 13.5738 21.1212 14.1595 21.3305 14.6456L21.7036 15.0807L21.7944 15.1859C22.5119 15.6875 23.5937 15.5602 24.1861 14.9224C24.2104 14.8958 24.2348 14.8692 24.2569 14.8416C24.5072 15.0841 24.8283 15.2479 25.1693 15.3232C25.5303 15.4029 25.9134 15.3819 26.2578 15.249C26.5844 15.1228 26.869 14.8991 27.0793 14.619C27.3019 14.3245 27.4414 13.969 27.4647 13.6014C28.1567 13.628 28.8388 13.1486 29.0469 12.4875C29.2551 11.8265 28.9716 11.0426 28.3881 10.6672ZM25.1937 13.7875C23.9403 14.0388 22.565 13.2172 22.1908 11.9959C21.8165 10.7735 22.4964 9.323 23.6745 8.82916L24.6921 8.62543C25.9688 8.62986 27.1535 9.70832 27.2775 10.9795C27.4015 12.2517 26.4471 13.5372 25.1937 13.7875Z" fill="white"/>
<path d="M25.1935 13.7875C23.9401 14.0389 22.5649 13.2173 22.1906 11.996C21.8164 10.7736 22.4962 9.32306 23.6743 8.82922L24.6919 8.62549C25.9686 8.62992 27.1533 9.70838 27.2773 10.9795C27.4014 12.2518 26.4469 13.5373 25.1935 13.7875ZM24.1859 14.9221V15.7681C24.1305 17.5663 23.8792 19.3589 23.4396 21.1039C23.1794 22.137 22.8527 23.1535 22.4619 24.1445C21.8706 23.3782 21.4299 22.4958 21.1719 21.5623C20.2396 21.8691 19.3073 22.1747 18.375 22.4814C19.1301 21.4926 19.7801 20.4252 20.3127 19.3013C20.832 18.2096 21.2406 17.0669 21.5274 15.8921L21.7034 15.0805L21.7942 15.1857C22.5117 15.6872 23.5935 15.5599 24.1859 14.9221ZM32.1448 19.8337C31.3532 20.2799 30.4231 20.4781 29.5184 20.3918C29.3867 21.0949 29.38 21.8212 29.4974 22.5265C28.7334 21.9995 28.0469 21.3639 27.4578 20.6486C26.3904 19.3576 25.6397 17.8063 25.3131 16.1631L25.1691 15.3227C25.5301 15.4025 25.9132 15.3814 26.2576 15.2485C26.5842 15.1223 26.8688 14.8987 27.0791 14.6185L27.3991 15.0758C28.2418 16.4964 29.3468 17.7598 30.639 18.7895C31.1162 19.1716 31.62 19.5203 32.1448 19.8337Z" fill="white"/>
<path d="M27.8426 28.1089C26.1828 28.0458 24.5208 28.0569 22.8633 28.1444C22.8633 28.0259 22.8633 27.9373 22.8633 27.9373C22.9508 27.2508 23.7734 26.9098 24.0602 26.2798C24.2097 25.9498 24.1964 25.5722 24.1754 25.2113C24.1089 24.1217 23.9816 23.0366 23.7945 21.9615L23.4402 21.1044C23.8797 19.3594 24.1311 17.5668 24.1865 15.7686V14.9226C24.2108 14.8961 24.2352 14.8695 24.2573 14.8418C24.5076 15.0843 24.8287 15.2482 25.1697 15.3235L25.3136 16.1639C25.6403 17.807 26.391 19.3583 27.4584 20.6494L26.9203 21.3713C25.9559 22.8351 25.9647 24.878 26.9435 26.3318C27.2746 26.8234 27.7186 27.284 27.7961 27.872L27.8426 28.1089Z" fill="white"/>
<path d="M30.0824 30.1698C26.9178 30.0978 23.75 30.1078 20.5866 30.1975L20.7438 29.7357C20.9508 29.2685 21.1579 28.8001 21.365 28.3328L21.6119 28.2232C22.0282 28.1911 22.4456 28.1645 22.8631 28.1435C24.5206 28.056 26.1826 28.0449 27.8424 28.1081C28.4591 28.1313 29.0759 28.1656 29.6926 28.2099C29.789 28.6916 29.8853 29.1721 29.9805 29.6538L30.0824 30.1698ZM34.559 5.13302C34.5324 6.23033 34.4394 7.32651 34.2844 8.41273C33.96 10.6915 33.361 12.9303 32.5017 15.064C32.1585 15.9177 31.7743 16.7548 31.348 17.5709C31.1775 17.8986 31.0003 18.223 30.8165 18.543L30.6393 18.7899C29.3472 17.7602 28.2421 16.4968 27.3995 15.0762L27.0795 14.6189C27.3021 14.3244 27.4416 13.9689 27.4648 13.6013C28.1569 13.6279 28.8389 13.1485 29.0471 12.4874C29.2553 11.8264 28.9718 11.0425 28.3883 10.6671L28.3263 9.95182C28.5367 9.24318 28.3108 8.42381 27.766 7.92333C27.2223 7.42285 26.3875 7.26562 25.6988 7.53357C25.3854 6.93233 24.6856 6.55697 24.0113 6.63005C23.3381 6.70202 22.7335 7.218 22.5564 7.87239L21.799 8.10049C21.2564 8.09717 20.7272 8.44595 20.5168 8.94532C20.3064 9.4458 20.426 10.0681 20.808 10.4534C20.0573 10.563 19.4948 11.389 19.6686 12.1287C19.8425 12.8672 20.7139 13.3555 21.4347 13.1197C21.1623 13.5737 21.1214 14.1594 21.3306 14.6455L21.7038 15.0806L21.5277 15.8923C21.2409 17.0671 20.8324 18.2097 20.3131 19.3015L19.714 18.7722C19.3021 18.3991 18.9235 17.9938 18.578 17.5631C17.9856 16.8268 17.4873 16.0163 17.0743 15.1592C16.4775 13.9236 16.0579 12.5926 15.7866 11.2484C15.5973 10.3106 15.4743 9.36387 15.3968 8.41163C15.306 7.30991 15.2761 6.20044 15.2706 5.08983C15.2662 4.276 15.2761 3.46106 15.2861 2.64833L16.1221 2.10467C22.0769 0.30095 28.3584 0.382887 34.3498 2.34052L34.5203 2.7801C34.5668 3.56404 34.5801 4.34908 34.559 5.13302Z" fill="white"/>
<path d="M40.5077 15.2928L40.3837 15.6571C37.961 17.3645 34.884 18.1152 31.9464 17.7166L31.3485 17.5704C31.7748 16.7544 32.159 15.9173 32.5022 15.0636L33.0813 15.1688C34.7644 15.2208 36.4574 14.9008 38.0053 14.2398L38.3397 14.0449C38.6586 14.4778 39.1336 14.7912 39.6186 15.0381C39.8965 15.1798 40.1977 15.3072 40.5077 15.2928ZM45.0673 9.05284L45.0662 9.05506L44.8082 9.72716C44.4151 9.34184 43.9157 9.05063 43.3942 8.86461C43.2315 8.80703 43.0665 8.75721 42.8993 8.71513L43.0399 8.22794L43.1229 7.87583C43.3654 6.81729 43.5515 5.72111 43.2802 4.67699C42.9779 3.51658 41.9271 2.45915 40.7335 2.57099C39.7536 2.66289 38.994 3.48447 38.5378 4.35588C38.0816 5.2284 37.8247 6.20166 37.2966 7.0321C36.7695 7.86254 35.8438 8.56011 34.8717 8.40399L34.2848 8.41285C34.4398 7.32663 34.5328 6.23045 34.5594 5.13318L35.205 4.92723C37.2036 4.14661 37.9067 1.50359 39.8388 0.57128C41.1166 -0.0454622 42.7288 0.265677 43.8272 1.16366C44.9256 2.06275 45.539 3.46343 45.6818 4.87519C45.8235 6.28692 45.5323 7.71196 45.0673 9.05284ZM11.8463 13.7538C11.7832 13.8789 11.7068 13.9952 11.6204 14.1037C11.3037 14.5067 10.8497 14.8024 10.388 15.0382C10.1012 15.1844 9.79231 15.315 9.47231 15.2918C9.46345 15.2907 9.4557 15.2907 9.44684 15.2885L9.54539 15.4966C8.80796 15.5553 8.79135 15.8598 8.79135 15.8598C7.04519 17.4853 5.08203 18.3511 4.77642 20.342C4.47082 22.3317 5.10749 24.358 6.01766 26.154C6.92782 27.9511 8.11038 29.5987 9.01612 31.3979C9.92186 33.1972 10.5497 35.2268 10.2297 37.2155C9.93071 39.0712 8.82235 40.7244 7.43605 41.9933C6.18485 43.1382 4.71331 44.0052 3.21408 44.8035C2.81769 44.2875 2.4988 43.7051 2.26849 43.1005C1.92524 42.2014 1.7514 41.2536 1.66171 40.2936C5.54043 38.202 6.21032 35.4893 4.70888 32.8584C3.14101 30.1135 0.874452 26.2171 0.342968 22.5864C-0.188515 18.9568 1.58199 17.1852 3.36467 14.1303C4.20619 12.6864 3.71567 10.7011 4.70888 9.35579L4.96244 9.10555L5.21822 9.70568C5.60797 9.33032 6.0996 9.04686 6.61115 8.86417C6.77391 8.80548 6.94 8.75676 7.1072 8.71469L6.96658 8.22749L6.88353 7.87539L7.29211 7.79566C7.95094 7.59193 8.70941 7.74473 9.23757 8.18763L9.7458 8.45448L9.74802 8.45559C9.81224 8.46998 9.87424 8.49434 9.92518 8.53863C10.1389 8.71912 10.0514 9.07012 9.8975 9.30485C9.89528 9.30818 9.89307 9.3115 9.89085 9.31482L10.1367 9.49973C10.4345 9.66471 10.5663 10.0412 10.5253 10.3789C10.5165 10.452 10.501 10.5239 10.4799 10.5937L10.7656 10.7255C11.1011 10.8428 11.2982 11.216 11.2982 11.5714C11.2982 11.67 11.286 11.7674 11.2627 11.8626L11.5473 11.9589C12.0766 12.3531 12.1441 13.1659 11.8463 13.7538Z" fill="white"/>
<path d="M18.5781 17.5628L18.0588 17.7167C15.1224 18.1153 12.0442 17.3646 9.62153 15.6572L9.54513 15.4966L9.44659 15.2885C9.45544 15.2907 9.46319 15.2907 9.47205 15.2918C9.79205 15.315 10.101 15.1844 10.3878 15.0382C10.8495 14.8024 11.3035 14.5067 11.6201 14.1037L11.9999 14.2399C13.549 14.9009 15.242 15.2209 16.9239 15.1689L17.0745 15.1589C17.4875 16.0159 17.9857 16.8264 18.5781 17.5628ZM15.3971 8.41174L15.1347 8.40399C14.1625 8.56011 13.2368 7.86254 12.7087 7.0321C12.1805 6.20166 11.9247 5.2284 11.4685 4.35588C11.0124 3.48447 10.2528 2.66289 9.27286 2.57099C8.07923 2.45915 7.02732 3.51658 6.72615 4.67699C6.45487 5.72111 6.64089 6.81729 6.88338 7.87583L6.96642 8.22794L7.10704 8.71513C6.93985 8.7572 6.77376 8.80592 6.61099 8.86461C6.09944 9.04731 5.60782 9.33076 5.21806 9.70612L4.96229 9.10599L4.93903 9.05284C4.47398 7.71195 4.18167 6.28692 4.32451 4.87519C4.46734 3.46343 5.08076 2.06275 6.17916 1.16366C7.27756 0.265677 8.88864 -0.0454622 10.1664 0.57128C12.0997 1.50359 12.8028 4.14661 14.8014 4.92723L15.2709 5.08999C15.2764 6.20055 15.3063 7.31002 15.3971 8.41174ZM34.6299 30.3286C33.1152 30.2577 31.5983 30.2045 30.0824 30.1702C26.9179 30.0982 23.75 30.1082 20.5866 30.1979C19.5258 30.2278 18.4651 30.2677 17.4054 30.3164L16.544 30.5035C16.6459 32.7712 16.7477 35.0399 16.8496 37.3076L16.8662 37.3463C22.8011 37.157 28.7437 37.2024 34.6753 37.4814L34.7307 37.0629C34.9034 34.8218 34.8691 32.5641 34.6299 30.3286ZM31.4543 35.2392L31.4366 35.4086C27.6188 35.2348 23.7965 35.1573 19.9809 35.1772C19.8945 34.2549 19.9123 33.3159 19.8259 32.3936L20.3718 32.326C24.0169 32.2773 27.6719 32.336 31.3225 32.5032C31.4975 33.4134 31.5418 34.3302 31.4543 35.2392Z" fill="white"/>
<path d="M36.4855 39.9462C29.1865 39.7723 21.8841 39.7524 14.584 39.8864C15.0612 39.1102 15.5395 38.3351 16.0179 37.56L16.6811 37.3519C16.7431 37.3496 16.804 37.3474 16.866 37.3463C22.8009 37.157 28.7436 37.2024 34.6752 37.4814C34.6818 37.4814 34.6895 37.4825 34.6962 37.4825L35.0848 37.6608C35.4768 38.3373 35.8976 38.9961 36.346 39.6361L36.4855 39.9462ZM31.4541 35.2393L31.4364 35.4087C27.6186 35.2349 23.7964 35.1574 19.9808 35.1773C19.8944 34.255 19.9121 33.316 19.8257 32.3937L20.3716 32.3261C24.0167 32.2774 27.6718 32.3361 31.3224 32.5033C31.4973 33.4135 31.5416 34.3303 31.4541 35.2393Z" fill="white"/>
<path d="M45.7057 10.6524C45.3337 9.67471 44.4789 9.00482 43.5189 8.64607C42.9509 8.43348 42.3463 8.33383 41.7451 8.27293C41.4383 8.24192 41.1294 8.22199 40.8216 8.20538C40.5459 8.18988 40.2348 8.14448 39.9878 8.29839C39.4785 8.61618 39.7542 9.2761 40.0443 9.63596C40.3721 10.0434 40.8404 10.3169 41.3464 10.4354C41.59 10.4919 41.8525 10.5184 42.0806 10.6258C42.2854 10.7222 42.4249 10.8883 42.5046 11.0975C42.6973 11.6058 42.6154 12.2015 42.5766 12.7285C42.5279 13.3851 42.4814 14.0528 42.6563 14.6961C42.8069 15.252 43.1136 15.7602 43.6041 16.0758C43.8743 16.2496 44.1245 15.8189 43.8555 15.645C43.0273 15.1113 42.994 13.9819 43.0483 13.1072C43.1048 12.2015 43.365 10.8418 42.4437 10.2571C42.034 9.99693 41.5247 10.029 41.0929 9.82973C40.7363 9.66586 40.32 9.34364 40.217 8.94503C40.1683 8.75791 40.2514 8.68704 40.4374 8.68593C40.7098 8.68372 40.9866 8.7114 41.259 8.73022C41.8082 8.76787 42.3563 8.82988 42.8889 8.96939C43.8577 9.22406 44.852 9.80426 45.2263 10.7842C45.2739 10.9093 45.3946 10.9968 45.533 10.958C45.6515 10.9259 45.7533 10.7786 45.7057 10.6524Z" fill="white"/>
<path d="M40.8612 10.5857C41.2798 11.156 41.8212 11.6265 42.4568 11.9432C42.573 12.0008 42.7314 11.9787 42.7978 11.8535C42.8576 11.7406 42.8332 11.5745 42.7081 11.5125C42.5631 11.4405 42.4224 11.3608 42.2874 11.2733C42.2209 11.2302 42.1567 11.1859 42.0936 11.1394C42.077 11.1272 42.0604 11.115 42.0438 11.1017C42.0249 11.0873 42.0571 11.1128 42.0249 11.0873C41.9928 11.0618 41.9607 11.0353 41.9286 11.0087C41.8079 10.9068 41.6939 10.7994 41.5854 10.6854C41.5289 10.6256 41.4735 10.5636 41.4204 10.4994C41.396 10.4706 41.3728 10.4418 41.3495 10.413C41.334 10.3942 41.3595 10.4274 41.3351 10.3942C41.3207 10.3742 41.3052 10.3543 41.2908 10.3344C41.2144 10.2292 41.0716 10.1672 40.9498 10.2447C40.8468 10.3111 40.7782 10.4728 40.8612 10.5857Z" fill="white"/>
<path d="M39.7426 9.28551C39.4248 9.47374 39.2576 9.81035 39.2277 10.1702C39.1945 10.5622 39.3694 10.9497 39.582 11.2675C40.0216 11.9241 40.6372 12.5508 41.3326 12.9361C41.7268 13.1543 42.2106 13.2927 42.6458 13.11C42.7698 13.0579 42.8584 12.945 42.8196 12.8033C42.7875 12.6859 42.6381 12.5763 42.5129 12.6294C42.1331 12.7889 41.7489 12.6184 41.4234 12.4102C41.0657 12.1799 40.7424 11.8887 40.4556 11.5753C40.1877 11.283 39.8976 10.9442 39.7747 10.5611C39.6806 10.2688 39.7005 9.88896 39.9928 9.71623C40.2707 9.55347 40.0194 9.12164 39.7426 9.28551Z" fill="white"/>
<path d="M39.1727 10.4856C38.7575 10.645 38.5106 11.0226 38.4641 11.4578C38.4131 11.9328 38.6468 12.4012 38.9158 12.7765C39.1827 13.1508 39.5038 13.4741 39.8725 13.7498C40.2445 14.0266 40.6896 14.2746 41.1436 14.3809C41.6707 14.5038 42.2476 14.3466 42.459 13.8074C42.5078 13.6822 42.4048 13.5339 42.2852 13.5007C42.1435 13.4619 42.0283 13.5494 41.9785 13.6745C41.9165 13.8317 41.7238 13.9115 41.5677 13.9258C41.3274 13.9469 41.0827 13.855 40.8679 13.7575C40.4615 13.5748 40.0884 13.3235 39.7695 13.0124C39.4584 12.7101 39.1483 12.3325 39.0155 11.9129C38.9147 11.5962 38.9357 11.1068 39.3067 10.965C39.4318 10.9174 39.5193 10.7967 39.4805 10.6583C39.4462 10.5387 39.2989 10.4369 39.1727 10.4856Z" fill="white"/>
<path d="M38.332 11.7446C37.6422 12.2772 37.5791 13.2704 38.0054 13.9934C38.239 14.3887 38.5878 14.701 38.9665 14.9523C39.3596 15.2125 39.8213 15.4749 40.2952 15.5325C40.7846 15.5923 41.3748 15.3277 41.4534 14.7907C41.4733 14.6578 41.4202 14.5227 41.2795 14.484C41.1622 14.4518 40.9928 14.5238 40.9728 14.6578C40.9274 14.9711 40.5941 15.0808 40.314 15.0343C39.9497 14.9745 39.5976 14.7619 39.2909 14.567C38.7417 14.2182 38.2324 13.6967 38.2324 13.0069C38.2324 12.7024 38.3331 12.3669 38.5834 12.1731C38.6897 12.0912 38.7472 11.9594 38.6731 11.8321C38.6122 11.7291 38.4394 11.6616 38.332 11.7446ZM40.9439 8.36492C41.4145 7.97738 42.0733 7.86444 42.648 8.03717C42.9558 8.13018 43.0876 7.64853 42.7809 7.55662C42.0246 7.32853 41.1975 7.51344 40.5918 8.01281C40.4877 8.09807 40.5032 8.27634 40.5918 8.36492C40.6937 8.46679 40.8398 8.45018 40.9439 8.36492ZM45.0817 9.48203C45.786 10.4542 45.7273 11.7264 45.9399 12.857C46.055 13.467 46.2732 14.003 46.5898 14.5344C46.9176 15.0836 47.263 15.6229 47.6041 16.1643C48.1942 17.1011 48.7877 18.0555 49.1443 19.1107C49.5274 20.2457 49.5905 21.4404 49.4078 22.6218C48.9992 25.2571 47.8266 27.734 46.5765 30.0637C46.282 30.6129 45.9786 31.1577 45.6708 31.7002C45.4029 32.1741 45.1105 32.6403 44.8725 33.1297C44.4916 33.9136 44.2579 34.7817 44.3155 35.6587C44.4528 37.7647 46.1181 39.2949 47.8344 40.2948C48.13 40.4675 48.4323 40.6269 48.7401 40.7775C49.0269 40.9182 49.2794 40.4885 48.9915 40.3468C47.1999 39.4654 45.2002 38.1046 44.8492 35.9809C44.7175 35.1848 44.8758 34.3499 45.1958 33.6114C45.3962 33.1474 45.6653 32.7167 45.9144 32.2782C46.2178 31.7467 46.5179 31.213 46.8102 30.676C48.0724 28.3596 49.2683 25.9126 49.7887 23.3083C50.0334 22.0826 50.0998 20.8292 49.8053 19.6057C49.5462 18.5261 49.0258 17.534 48.4544 16.5906C48.1466 16.0824 47.8244 15.583 47.5089 15.0803C47.1789 14.5544 46.7947 14.0218 46.5976 13.4283C46.2266 12.3155 46.3385 11.0964 45.9166 9.9958C45.8125 9.72342 45.6819 9.46653 45.5114 9.22958C45.4327 9.12107 45.2943 9.06792 45.1703 9.13989C45.064 9.20411 45.0031 9.37242 45.0817 9.48203Z" fill="white"/>
<path d="M41.0377 16.0359C41.8272 16.7667 42.7163 17.3746 43.5224 18.0844C44.2056 18.6856 44.8002 19.3865 44.9707 20.3055C45.1877 21.4759 45.005 22.7116 44.6651 23.8399C44.3052 25.0335 43.7427 26.1474 43.1216 27.2237C41.8792 29.3806 40.3977 31.4501 39.7522 33.8882C39.4399 35.0686 39.3381 36.3087 39.5761 37.5123C39.7887 38.583 40.2693 39.5939 40.8982 40.482C42.2778 42.4274 44.3052 43.7439 46.3725 44.8612C46.6327 45.0018 46.8951 45.1402 47.1575 45.2775C47.441 45.4259 47.6934 44.9962 47.4089 44.8468C45.3272 43.7572 43.219 42.5647 41.7054 40.7222C41.0244 39.8929 40.4774 38.9362 40.1829 37.9009C39.8607 36.7671 39.8806 35.5735 40.1331 34.4286C40.6756 31.9727 42.135 29.8899 43.3884 27.7563C44.6164 25.6635 45.7347 23.3007 45.5332 20.8082C45.4911 20.29 45.3948 19.794 45.17 19.3212C44.9718 18.9037 44.6839 18.5306 44.365 18.1973C43.6586 17.4577 42.7982 16.8808 42.0143 16.2286C41.8017 16.0515 41.5924 15.8699 41.3898 15.6816C41.1551 15.4657 40.8019 15.8178 41.0377 16.0359ZM23.5485 8.61356C22.5641 9.03654 21.9219 10.0585 21.8455 11.1104C21.7658 12.2099 22.4102 13.2275 23.3702 13.7335C23.8441 13.9838 24.3922 14.1177 24.9292 14.0734C25.4917 14.0269 26.0088 13.8033 26.4451 13.4478C27.2977 12.7547 27.7461 11.5644 27.4372 10.4926C27.0928 9.29674 25.9402 8.3899 24.6912 8.3755C24.3701 8.37218 24.3701 8.87045 24.6912 8.87377C25.6213 8.88484 26.4761 9.50048 26.8536 10.3398C27.2379 11.1946 26.9821 12.1944 26.3487 12.8577C26.0321 13.1887 25.6323 13.4323 25.1839 13.5342C24.7476 13.6328 24.2903 13.5763 23.8751 13.418C23.0469 13.1035 22.3881 12.3262 22.3405 11.4249C22.2873 10.4228 22.8753 9.43958 23.7998 9.04207C23.9238 8.98893 23.9515 8.80734 23.8895 8.70104C23.8142 8.57592 23.6725 8.56042 23.5485 8.61356Z" fill="white"/>
<path d="M22.796 7.93828C22.9532 7.38686 23.4537 6.93842 24.0306 6.87752C24.6208 6.81441 25.2043 7.14105 25.4822 7.66035C25.5298 7.75004 25.6649 7.81205 25.7635 7.7744C26.3813 7.54188 27.1165 7.65482 27.6037 8.11433C28.0787 8.56166 28.2625 9.26255 28.0843 9.88705C27.9968 10.196 28.4774 10.3277 28.5648 10.0199C28.7896 9.23155 28.5571 8.32803 27.9558 7.76333C27.3468 7.18977 26.4134 7.00043 25.6306 7.29496C25.7247 7.33261 25.8177 7.37136 25.9118 7.40901C25.5487 6.73247 24.7592 6.29621 23.9907 6.38369C23.2057 6.47337 22.5314 7.04693 22.3144 7.80651C22.228 8.11433 22.7085 8.24609 22.796 7.93828ZM28.2625 10.8828C28.7453 11.2028 28.9789 11.8483 28.8129 12.402C28.6401 12.9766 28.0555 13.3664 27.4642 13.352C27.3225 13.3487 27.225 13.4694 27.2151 13.6011C27.1708 14.2046 26.7611 14.7759 26.1986 15.0062C25.6073 15.2487 24.8932 15.1014 24.4325 14.6652C24.3417 14.5788 24.1679 14.5589 24.0804 14.6652C23.5578 15.2941 22.5956 15.4325 21.9191 14.9708C21.6533 14.7892 21.4042 15.221 21.6677 15.4015C22.5137 15.9795 23.777 15.8068 24.4325 15.0184C24.3152 15.0184 24.1978 15.0184 24.0804 15.0184C24.6861 15.5931 25.614 15.7868 26.3902 15.4635C27.1442 15.1491 27.6524 14.4116 27.7122 13.6033C27.6292 13.6864 27.5461 13.7694 27.4631 13.8525C28.2758 13.8735 29.0576 13.3188 29.2912 12.537C29.5237 11.7631 29.1782 10.895 28.5128 10.4543C28.2459 10.2749 27.9957 10.7056 28.2625 10.8828ZM21.5704 14.5797C21.3899 14.1412 21.4098 13.6574 21.6501 13.2455C21.7564 13.0628 21.5793 12.8136 21.3689 12.879C20.7754 13.0628 20.0678 12.6907 19.9139 12.0795C19.7545 11.4484 20.255 10.794 20.875 10.6932C21.0688 10.6622 21.1031 10.3998 20.9847 10.2769C20.6779 9.95691 20.5717 9.45533 20.7455 9.04121C20.9204 8.62599 21.3545 8.35361 21.7996 8.34918C22.1196 8.34586 22.1207 7.84759 21.7996 7.85091C21.1541 7.85756 20.5418 8.25174 20.2893 8.84966C20.0368 9.44979 20.1852 10.1629 20.6326 10.6301C20.6691 10.4917 20.7056 10.3522 20.7422 10.2138C20.0623 10.3245 19.5142 10.9324 19.4101 11.6045C19.3016 12.3098 19.7058 12.9819 20.3524 13.2709C20.7145 13.4326 21.1186 13.4791 21.5017 13.3606C21.4076 13.2388 21.3146 13.117 21.2205 12.9941C20.9193 13.5101 20.8618 14.1567 21.091 14.7126C21.1419 14.8366 21.2559 14.9252 21.3977 14.8864C21.5139 14.8532 21.6224 14.7048 21.5704 14.5797Z" fill="white"/>
<path d="M21.2865 15.8265C20.8326 17.6679 20.0874 19.4273 19.0776 21.0329C18.7919 21.4868 18.4852 21.9286 18.1596 22.356C18.0268 22.531 18.2471 22.7856 18.4409 22.7225C19.3732 22.4158 20.3055 22.1102 21.2378 21.8035C21.1359 21.7459 21.033 21.6872 20.9311 21.6297C21.198 22.5841 21.6431 23.4843 22.2454 24.2716C22.3805 24.4476 22.6186 24.4222 22.7005 24.2118C23.5232 22.1169 24.0591 19.9167 24.3016 17.6801C24.3702 17.0456 24.4134 16.4078 24.4345 15.769C24.4444 15.4479 23.9462 15.449 23.9362 15.769C23.8664 17.9824 23.4988 20.1803 22.8467 22.2962C22.6606 22.8986 22.4514 23.4932 22.2211 24.0789C22.3728 24.059 22.5244 24.0391 22.6761 24.0191C22.0982 23.264 21.6674 22.4125 21.4117 21.4968C21.3762 21.3717 21.2334 21.2809 21.1049 21.323C20.1726 21.6297 19.2403 21.9353 18.308 22.242C18.4021 22.3638 18.4951 22.4856 18.5893 22.6085C19.7585 21.0727 20.6753 19.352 21.3054 17.5273C21.4836 17.0124 21.6364 16.4887 21.7671 15.9594C21.8435 15.6472 21.364 15.5143 21.2865 15.8265ZM25.0732 16.2304C25.4818 18.2666 26.5271 20.1678 28.0097 21.6205C28.4304 22.0324 28.8877 22.4066 29.3716 22.7421C29.5698 22.8794 29.7691 22.6535 29.7381 22.4609C29.6307 21.7999 29.6385 21.1178 29.758 20.459C29.6783 20.5199 29.5975 20.5808 29.5178 20.6417C30.4711 20.7269 31.4344 20.5132 32.2693 20.0482C32.4354 19.9563 32.4265 19.7127 32.2693 19.6174C30.7922 18.7327 29.4812 17.5646 28.4448 16.1894C28.1448 15.7919 27.868 15.3778 27.6133 14.9493C27.4494 14.6735 27.0187 14.9238 27.1826 15.2006C28.106 16.7508 29.3262 18.1083 30.7623 19.1989C31.1643 19.5045 31.5839 19.788 32.018 20.0471C32.018 19.9031 32.018 19.7603 32.018 19.6163C31.2551 20.0415 30.3859 20.2187 29.5178 20.1412C29.4181 20.1323 29.2952 20.2242 29.2775 20.3239C29.1402 21.0768 29.1347 21.8353 29.2576 22.5904C29.3794 22.4963 29.5012 22.4033 29.6241 22.3092C28.0008 21.1853 26.7264 19.5521 26.0211 17.7085C25.8206 17.1848 25.6645 16.6456 25.5549 16.0953C25.4907 15.7841 25.0101 15.917 25.0732 16.2304ZM23.5543 22.0281C23.7215 22.9925 23.84 23.9634 23.9086 24.94C23.9374 25.3497 24.0138 25.838 23.8145 26.2178C23.6684 26.4979 23.4192 26.7051 23.1989 26.9243C22.9342 27.1879 22.6796 27.49 22.6242 27.8722C22.6043 28.005 22.6574 28.14 22.798 28.1788C22.9154 28.2109 23.0848 28.1389 23.1048 28.0049C23.1513 27.6894 23.3583 27.4679 23.5776 27.252C23.8167 27.0161 24.0747 26.7837 24.2375 26.4848C24.4634 26.0673 24.4501 25.5911 24.4213 25.1305C24.3892 24.6222 24.3438 24.1152 24.2851 23.6092C24.2187 23.0357 24.1356 22.4643 24.0371 21.8963C24.0138 21.7634 23.8511 21.6891 23.7304 21.7223C23.5875 21.76 23.5311 21.8952 23.5543 22.0281ZM26.7043 21.2456C25.6757 22.8245 25.7089 25.0058 26.7918 26.5493C27.0963 26.9823 27.476 27.3964 27.5546 27.9378C27.5745 28.0707 27.7429 28.1449 27.8614 28.1117C28.0043 28.0729 28.0552 27.9389 28.0353 27.8049C27.9666 27.3366 27.6942 26.9435 27.4207 26.5704C27.1539 26.2072 26.9059 25.8374 26.7442 25.4144C26.4342 24.605 26.3666 23.707 26.5582 22.8622C26.6688 22.3739 26.8616 21.9154 27.134 21.4969C27.31 21.2267 26.8793 20.9776 26.7043 21.2456Z" fill="white"/>
<path d="M15.0368 2.64822C15.0058 5.13622 14.9815 7.63311 15.3369 10.1012C15.6447 12.236 16.2637 14.3475 17.3543 16.2188C17.9434 17.2286 18.6719 18.1598 19.5367 18.9482C19.7737 19.1641 20.1269 18.812 19.8888 18.5961C18.3807 17.222 17.3288 15.426 16.6601 13.5115C15.9038 11.3502 15.6325 9.06147 15.5506 6.78274C15.5008 5.40531 15.5174 4.02674 15.5351 2.64931C15.5384 2.3271 15.0401 2.32711 15.0368 2.64822ZM16.1872 2.34458C18.4714 1.65476 20.8321 1.23178 23.2149 1.10223C25.5911 0.973792 27.9816 1.12881 30.3202 1.56617C31.6611 1.81641 32.9853 2.15745 34.2819 2.58042C34.5875 2.68007 34.7182 2.19952 34.4148 2.09987C32.094 1.34362 29.6879 0.854208 27.2553 0.658224C24.8525 0.464454 22.4299 0.563 20.0493 0.943896C18.6984 1.15981 17.3642 1.46874 16.0543 1.86403C15.7487 1.95593 15.8793 2.43759 16.1872 2.34458Z" fill="white"/>
<path d="M34.2697 2.77969C34.3937 4.89566 34.2786 7.02604 33.9231 9.11544C33.5677 11.2026 32.9809 13.251 32.1748 15.2098C31.7208 16.3115 31.1915 17.3833 30.6003 18.4175C30.4408 18.6965 30.8715 18.9479 31.031 18.6688C32.1017 16.7987 32.9576 14.8045 33.5821 12.7417C34.2066 10.6778 34.5975 8.54298 34.748 6.39269C34.8322 5.19019 34.8388 3.98217 34.7691 2.77969C34.7503 2.4608 34.2509 2.45859 34.2697 2.77969ZM34.8045 8.64408C35.8553 8.8002 36.7821 8.16906 37.38 7.3508C38.0443 6.44174 38.2813 5.3079 38.8305 4.33684C39.2656 3.5684 39.9953 2.79111 40.9476 2.81215C41.8422 2.83208 42.573 3.57283 42.9074 4.35123C43.4212 5.5504 43.089 6.94998 42.8 8.16131C42.7258 8.47245 43.2064 8.60643 43.2806 8.29418C43.5684 7.08838 43.8475 5.79953 43.5098 4.57268C43.2518 3.63594 42.5597 2.77339 41.6319 2.44011C40.6519 2.088 39.6488 2.53312 38.9844 3.27166C38.2248 4.11539 37.927 5.20936 37.4553 6.21586C37.1995 6.76174 36.8862 7.27108 36.4189 7.66194C36.0147 8.00076 35.4744 8.24325 34.9374 8.16353C34.8045 8.1436 34.6694 8.19675 34.6307 8.33737C34.5975 8.45474 34.6705 8.62415 34.8045 8.64408Z" fill="white"/>
<path d="M33.0813 15.4181C34.8142 15.4668 36.5359 15.1314 38.1315 14.4548C38.2555 14.4028 38.2821 14.219 38.2212 14.1138C38.1459 13.9853 38.0042 13.9721 37.8802 14.0241C36.3687 14.6652 34.7211 14.9653 33.0813 14.9188C32.7602 14.911 32.7602 15.4093 33.0813 15.4181ZM31.9465 17.9664C34.2772 18.2786 36.6833 17.8778 38.8037 16.868C39.3994 16.5845 39.9697 16.2512 40.51 15.8725C40.6196 15.795 40.6717 15.6544 40.5997 15.5315C40.5366 15.423 40.3694 15.3643 40.2587 15.4418C38.3985 16.7473 36.1673 17.4914 33.8964 17.5655C33.2453 17.5866 32.5931 17.5534 31.9465 17.467C31.8125 17.4493 31.6973 17.5943 31.6973 17.7161C31.6973 17.8667 31.8125 17.9487 31.9465 17.9664ZM35.2705 5.16748C36.2936 4.76112 36.9967 3.92846 37.65 3.07698C38.2733 2.26536 38.889 1.3707 39.8058 0.866897C40.8798 0.276729 42.2251 0.437281 43.2482 1.05845C44.3378 1.72059 45.0154 2.89761 45.3033 4.11559C45.6864 5.73993 45.362 7.43514 44.8272 8.98641C44.722 9.2898 45.2037 9.42045 45.3077 9.11928C45.8171 7.6422 46.1171 6.06325 45.8835 4.50313C45.6853 3.17996 45.0641 1.86453 44.02 1.00198C43.0069 0.164896 41.5918 -0.222644 40.3063 0.130571C39.1802 0.440603 38.3841 1.31534 37.6931 2.20668C36.9778 3.13013 36.2692 4.23739 35.1376 4.68693C35.0125 4.73676 34.925 4.85302 34.9637 4.99364C34.997 5.11323 35.1453 5.21731 35.2705 5.16748ZM4.77971 10.7858C5.09528 9.95648 5.88808 9.38292 6.70191 9.09725C7.22896 8.91233 7.78259 8.81711 8.33733 8.76396C8.61857 8.73739 8.90092 8.71967 9.18438 8.70417C9.30507 8.69753 9.42687 8.68756 9.54756 8.68756C9.61842 8.68756 9.72915 8.68092 9.77898 8.74403C9.8742 8.86361 9.7369 9.09725 9.67047 9.19801C9.54977 9.37849 9.38811 9.54015 9.20874 9.66305C9.02493 9.78928 8.82674 9.87897 8.61193 9.93544C8.3794 9.99634 8.14024 10.0262 7.91103 10.1004C7.42938 10.2588 7.11049 10.6142 6.97762 11.1003C6.84142 11.6008 6.88793 12.1367 6.92447 12.6482C6.99644 13.6403 7.1271 15.0166 6.1505 15.6456C5.88143 15.8183 6.13167 16.2501 6.40184 16.0763C7.35741 15.4618 7.51907 14.2593 7.46149 13.2162C7.42938 12.6371 7.3264 12.0326 7.41055 11.4535C7.44156 11.2376 7.50578 11.005 7.64861 10.8345C7.80806 10.6452 8.03837 10.5721 8.272 10.519C8.52667 10.4603 8.78355 10.4204 9.02604 10.3208C9.27185 10.22 9.4933 10.0849 9.69372 9.91108C10.037 9.61544 10.4356 9.09503 10.2628 8.61227C10.1621 8.32881 9.89635 8.20258 9.61067 8.1904C9.31725 8.17712 9.01275 8.21476 8.72044 8.23469C8.11145 8.27788 7.49913 8.34653 6.91007 8.5104C5.78399 8.82265 4.72767 9.52797 4.29916 10.6529C4.25155 10.7792 4.35231 10.9264 4.473 10.9597C4.61362 10.9973 4.73099 10.912 4.77971 10.7858Z" fill="white"/>
<path d="M8.713 10.3346C8.65874 10.4077 8.64767 10.4232 8.58345 10.4996C8.53252 10.5594 8.48047 10.6192 8.42733 10.6757C8.3166 10.793 8.19923 10.9049 8.07522 11.0089C8.04643 11.0333 8.01764 11.0566 7.98885 11.0798C7.97889 11.0876 7.94456 11.1141 7.97114 11.0942C7.95453 11.1064 7.93792 11.1197 7.92131 11.1319C7.8582 11.1784 7.79398 11.2238 7.72758 11.2669C7.58918 11.3577 7.44523 11.4397 7.29686 11.5139C7.17949 11.5725 7.13852 11.7464 7.20717 11.8549C7.28468 11.9745 7.42309 12.0066 7.54821 11.9446C8.18262 11.629 8.72518 11.1584 9.14372 10.5871C9.22123 10.4819 9.16476 10.3047 9.05403 10.246C8.92338 10.1763 8.79493 10.2217 8.713 10.3346Z" fill="white"/>
<path d="M10.0099 9.71624C10.2934 9.88344 10.3233 10.2522 10.2358 10.5389C10.1162 10.9309 9.81948 11.2786 9.5482 11.5753C9.26585 11.8831 8.95028 12.1688 8.60039 12.398C8.27153 12.6128 7.87957 12.7933 7.49207 12.6305C7.36806 12.5785 7.21747 12.687 7.18536 12.8044C7.1455 12.9483 7.23519 13.0579 7.3592 13.1111C8.13866 13.4388 8.96689 12.8044 9.51388 12.3116C9.81726 12.0382 10.0885 11.7326 10.3288 11.4026C10.5636 11.0804 10.7618 10.7117 10.7795 10.3053C10.7972 9.90337 10.6134 9.49368 10.2613 9.28663C9.98557 9.12275 9.73422 9.55237 10.0099 9.71624Z" fill="white"/>
<path d="M10.6984 10.9661C11.0693 11.1078 11.0903 11.5961 10.9896 11.9139C10.8556 12.3336 10.5456 12.71 10.2355 13.0134C9.91664 13.3246 9.5435 13.5759 9.13714 13.7586C8.92233 13.8549 8.67652 13.9479 8.43735 13.9269C8.28123 13.9136 8.08856 13.8339 8.02656 13.6756C7.97784 13.5504 7.85936 13.463 7.7198 13.5017C7.60022 13.5349 7.49614 13.6822 7.54596 13.8084C7.72091 14.2547 8.17714 14.4706 8.64219 14.4174C9.12163 14.3632 9.59333 14.1207 9.98751 13.8527C10.364 13.5969 10.6973 13.2869 10.9763 12.9271C11.2697 12.5484 11.5255 12.1099 11.5454 11.6194C11.5642 11.13 11.293 10.6627 10.8312 10.4867C10.705 10.4391 10.5577 10.5398 10.5245 10.6605C10.4858 10.8 10.5721 10.9174 10.6984 10.9661Z" fill="white"/>
<path d="M11.4208 12.1745C11.8891 12.5365 11.8393 13.2817 11.568 13.7412C11.3898 14.0435 11.1262 14.2882 10.8395 14.4853C10.5394 14.6913 10.2017 14.8917 9.85179 14.9958C9.54065 15.0877 9.08778 15.0533 9.0302 14.658C9.01027 14.5252 8.84208 14.4521 8.7236 14.4842C8.58077 14.523 8.52983 14.6569 8.54976 14.7909C8.6162 15.2482 9.08568 15.5317 9.51861 15.5438C10.0058 15.5571 10.4864 15.2903 10.8905 15.0445C11.6357 14.5905 12.2989 13.8785 12.2689 12.9518C12.2535 12.4712 12.0542 12.0394 11.6722 11.7437C11.5659 11.6618 11.3931 11.7271 11.3311 11.8334C11.2569 11.963 11.3145 12.0925 11.4208 12.1745ZM9.4132 8.01184C8.80753 7.51247 7.98152 7.32866 7.22417 7.55565C6.91746 7.64755 7.04811 8.12921 7.35704 8.0362C7.93169 7.86347 8.59051 7.97641 9.06109 8.36395C9.16518 8.44921 9.31133 8.46582 9.4132 8.36395C9.50178 8.27648 9.51728 8.09821 9.4132 8.01184ZM4.49272 9.23071C3.78186 10.2117 3.8029 11.464 3.6047 12.6089C3.55377 12.9013 3.48844 13.1925 3.39211 13.4726C3.29467 13.7539 3.14962 14.0063 2.99792 14.261C2.6735 14.8046 2.33357 15.3372 1.99586 15.8731C1.39572 16.8243 0.802233 17.792 0.422444 18.8561C0.0238319 19.9733 -0.0813577 21.1647 0.0592638 22.3395C0.377046 24.9848 1.51752 27.4938 2.74104 29.8312C3.30463 30.9086 3.91473 31.9583 4.51044 33.0179C4.92566 33.7553 5.20579 34.578 5.19804 35.4306C5.18143 37.4491 3.53937 38.9207 1.91724 39.8652C1.6216 40.0379 1.31932 40.1974 1.0115 40.3479C0.723618 40.4897 0.976072 40.9193 1.26285 40.7787C3.12083 39.8641 5.15375 38.4412 5.6033 36.2755C5.77826 35.4317 5.68746 34.557 5.39403 33.7509C5.22684 33.2914 4.99763 32.8684 4.75625 32.4455C4.46061 31.9284 4.16608 31.4113 3.87708 30.8909C2.59267 28.5745 1.36804 26.1551 0.774552 23.5575C0.497737 22.3473 0.377046 21.0927 0.64611 19.8692C0.883063 18.7952 1.38797 17.8186 1.95267 16.883C2.26381 16.3681 2.58934 15.8632 2.90823 15.3538C3.24263 14.8201 3.61577 14.2853 3.83722 13.693C4.25466 12.5746 4.13397 11.3378 4.53258 10.2151C4.62559 9.95264 4.75625 9.70794 4.91901 9.48206C4.99763 9.37355 4.93784 9.20414 4.82933 9.14102C4.70753 9.06794 4.57133 9.12109 4.49272 9.23071Z" fill="white"/>
<path d="M8.61468 15.6835C7.82521 16.4143 6.93605 17.0221 6.12996 17.7319C5.43571 18.3431 4.81676 19.075 4.59198 19.9929C4.31074 21.1411 4.44804 22.4078 4.73814 23.5406C5.04485 24.7386 5.56416 25.8735 6.15764 26.9542C7.3568 29.1344 8.88928 31.1662 9.63889 33.5657C9.99543 34.7083 10.1792 35.9319 9.99211 37.1233C9.8238 38.1973 9.37869 39.2005 8.7697 40.0951C7.44428 42.0384 5.41357 43.3317 3.38065 44.4312C3.12044 44.5718 2.85802 44.7102 2.5956 44.8475C2.31104 44.9959 2.56349 45.4266 2.84695 45.2782C4.94298 44.182 7.07002 42.9729 8.60582 41.1304C9.31004 40.2856 9.88581 39.33 10.2268 38.2804C10.5978 37.141 10.6376 35.9363 10.4417 34.7604C10.0264 32.2779 8.62465 30.1376 7.35237 28.0205C6.10228 25.94 4.87101 23.6502 4.95073 21.1478C4.96734 20.644 5.02381 20.1291 5.22423 19.6618C5.40139 19.251 5.67045 18.8879 5.97716 18.5657C6.68581 17.8183 7.55279 17.238 8.3423 16.5826C8.55489 16.4054 8.76416 16.2238 8.96679 16.0356C9.20263 15.8174 8.84942 15.4653 8.61468 15.6835ZM15.0667 8.16309C14.0436 8.31478 13.1932 7.42233 12.7481 6.60961C12.2044 5.6164 11.9531 4.47261 11.2588 3.56245C10.6465 2.75858 9.7319 2.15955 8.68444 2.35443C7.71674 2.53381 6.96602 3.35207 6.60948 4.23234C6.08686 5.52339 6.41239 6.99272 6.72353 8.29264C6.79772 8.60488 7.27827 8.47201 7.20408 8.15977C6.9328 7.02594 6.64934 5.79688 6.99038 4.64645C7.23508 3.82155 7.89164 3.03318 8.75973 2.84495C9.68761 2.64453 10.5003 3.3111 10.9853 4.03414C11.6054 4.9587 11.8457 6.07591 12.4126 7.03036C12.9883 7.99921 14.0126 8.81858 15.1962 8.64253C15.3291 8.6226 15.4033 8.4543 15.3701 8.33582C15.3346 8.19409 15.2006 8.14316 15.0667 8.16309ZM16.9235 14.9201C15.2837 14.9666 13.6361 14.6666 12.1247 14.0255C12.0007 13.9734 11.8578 13.9878 11.7836 14.1151C11.7227 14.2192 11.7482 14.403 11.8733 14.4562C13.4678 15.1327 15.1896 15.4682 16.9235 15.4195C17.2435 15.4095 17.2446 14.9113 16.9235 14.9201ZM18.0585 17.468C15.8085 17.7692 13.48 17.4071 11.4315 16.4283C10.8436 16.1471 10.28 15.8171 9.7463 15.4429C9.63557 15.3653 9.46948 15.4229 9.40526 15.5325C9.33218 15.6566 9.38422 15.7961 9.49495 15.8736C11.4183 17.2233 13.7391 17.9829 16.0853 18.0648C16.7442 18.0881 17.4041 18.0549 18.0585 17.9674C18.1913 17.9497 18.3076 17.8655 18.3076 17.7183C18.3076 17.5965 18.1924 17.4503 18.0585 17.468Z" fill="white"/>
<path d="M14.867 4.68689C13.876 4.29381 13.2095 3.38254 12.585 2.56317C11.914 1.6829 11.2042 0.743949 10.1568 0.294403C8.93325 -0.231544 7.47828 -0.0156288 6.37878 0.709624C5.24606 1.45702 4.5197 2.70158 4.21631 4.00593C3.81991 5.7111 4.13548 7.48936 4.69796 9.11924C4.80205 9.42041 5.2837 9.29086 5.17851 8.98637C4.69575 7.58901 4.37797 6.07207 4.60938 4.59167C4.80537 3.33936 5.38114 2.11252 6.38764 1.31308C7.33434 0.562359 8.6808 0.270043 9.82681 0.694123C10.8134 1.05841 11.4943 1.94864 12.11 2.75583C12.8385 3.7114 13.5804 4.70793 14.7342 5.16633C14.8593 5.21616 15.0077 5.11208 15.0409 4.99249C15.0796 4.85187 14.9922 4.73672 14.867 4.68689ZM21.1494 28.207C20.9423 28.6743 20.7353 29.1426 20.5293 29.6099C20.4773 29.7284 20.4906 29.8834 20.619 29.9509C20.7275 30.0085 20.9036 29.9886 20.9601 29.8613C21.1671 29.394 21.3742 28.9256 21.5801 28.4584C21.6322 28.3399 21.6189 28.1849 21.4904 28.1173C21.3819 28.0609 21.2059 28.0797 21.1494 28.207Z" fill="white"/>
<path d="M21.6125 28.4731C23.7063 28.3159 25.809 28.2771 27.9084 28.3602C28.5041 28.3834 29.0987 28.4177 29.6933 28.4598C29.6135 28.3989 29.5327 28.338 29.453 28.2771C29.5493 28.7588 29.6446 29.2393 29.7409 29.721C29.804 30.0354 30.2834 29.9026 30.2214 29.5881C30.1251 29.1065 30.0299 28.6259 29.9335 28.1443C29.9114 28.0324 29.7974 27.9693 29.6933 27.9616C27.5983 27.811 25.4957 27.7789 23.3974 27.8685C22.8017 27.894 22.2071 27.9294 21.6125 27.9737C21.4785 27.9837 21.3634 28.0811 21.3634 28.2229C21.3634 28.3513 21.4774 28.4831 21.6125 28.4731ZM16.2943 30.503C16.3961 32.7707 16.498 35.0395 16.5999 37.3071C16.6142 37.626 17.1125 37.6282 17.0981 37.3071C16.9963 35.0395 16.8944 32.7707 16.7925 30.503C16.7781 30.183 16.2799 30.1819 16.2943 30.503Z" fill="white"/>
<path d="M17.4053 30.5657C19.6486 30.4639 21.8941 30.4019 24.1396 30.3808C26.3763 30.3598 28.613 30.3797 30.8485 30.4395C32.1086 30.4727 33.3697 30.5203 34.6287 30.579C34.5456 30.496 34.4626 30.4129 34.3796 30.3299C34.6176 32.5666 34.6519 34.8209 34.4803 37.0642C34.4703 37.1982 34.6021 37.3134 34.7294 37.3134C34.8723 37.3134 34.9686 37.1993 34.9786 37.0642C35.1491 34.822 35.1159 32.5666 34.8778 30.3299C34.8634 30.1904 34.776 30.0874 34.6287 30.0808C32.3854 29.9756 30.1399 29.9103 27.8944 29.8859C25.6577 29.8615 23.421 29.8781 21.1844 29.9346C19.9243 29.9667 18.6632 30.011 17.4042 30.0686C17.0853 30.0819 17.0842 30.5801 17.4053 30.5657ZM15.8021 37.4344C15.3238 38.2095 14.8466 38.9846 14.3682 39.7596C14.2697 39.9191 14.397 40.1383 14.583 40.135C17.4409 40.0829 20.2976 40.0542 23.1554 40.0486C25.9944 40.0431 28.8345 40.0619 31.6735 40.1029C33.2779 40.1261 34.8813 40.1571 36.4846 40.1959C36.8057 40.2036 36.8057 39.7054 36.4846 39.6976C33.6278 39.6301 30.77 39.5847 27.9122 39.5636C25.0732 39.5426 22.2331 39.5448 19.3941 39.5714C17.7896 39.5858 16.1863 39.6079 14.5819 39.6378C14.6539 39.763 14.7259 39.8881 14.7967 40.0132C15.2751 39.2381 15.7523 38.463 16.2306 37.688C16.4011 37.4122 15.9704 37.162 15.8021 37.4344Z" fill="white"/>
<path d="M16.6817 37.6023C19.0224 37.5259 21.3643 37.486 23.7061 37.4816C26.048 37.4783 28.3898 37.5104 30.7317 37.5801C32.0537 37.6189 33.3758 37.6698 34.6967 37.7318C35.0167 37.7473 35.0167 37.2491 34.6967 37.2336C32.3571 37.1239 30.0164 37.0497 27.6745 37.0121C25.3327 36.9745 22.9908 36.9733 20.649 37.0088C19.3269 37.0287 18.0049 37.0608 16.6828 37.104C16.3617 37.114 16.3606 37.6122 16.6817 37.6023ZM19.5759 32.3932C19.6634 33.3154 19.7509 34.2378 19.8384 35.1601C19.8505 35.2941 19.9435 35.4092 20.0875 35.4092C20.2126 35.4092 20.3499 35.2952 20.3366 35.1601C20.2492 34.2378 20.1617 33.3154 20.0742 32.3932C20.062 32.2591 19.969 32.144 19.8251 32.144C19.7 32.144 19.5638 32.2591 19.5759 32.3932Z" fill="white"/>
<path d="M20.3703 32.5748C23.2137 32.5372 26.0572 32.5637 28.8995 32.6568C29.7067 32.6833 30.5139 32.7143 31.3211 32.752C31.2413 32.6911 31.1605 32.6302 31.0808 32.5693C31.2469 33.4496 31.2867 34.3475 31.2037 35.24C31.1915 35.374 31.3266 35.4891 31.4528 35.4891C31.5979 35.4891 31.6898 35.3751 31.702 35.24C31.7894 34.3032 31.7363 33.3621 31.5613 32.4375C31.5403 32.3279 31.424 32.2592 31.3211 32.2548C28.4787 32.1253 25.6342 32.0599 22.7897 32.061C21.9836 32.061 21.1764 32.0677 20.3703 32.0777C20.0503 32.081 20.0492 32.5792 20.3703 32.5748Z" fill="white"/>
<path d="M19.9806 35.4268C22.9547 35.4113 25.9299 35.4544 28.9018 35.5574C29.7467 35.5862 30.5904 35.6205 31.4352 35.6593C31.7563 35.6737 31.7552 35.1754 31.4352 35.161C28.4633 35.0259 25.4881 34.9484 22.5129 34.9296C21.6692 34.9241 20.8255 34.9241 19.9806 34.9285C19.6607 34.9307 19.6595 35.429 19.9806 35.4268ZM34.8687 37.7871C35.2607 38.4636 35.6814 39.1224 36.1299 39.7624C36.2074 39.8721 36.348 39.9241 36.4709 39.8521C36.5794 39.7879 36.6381 39.6218 36.5606 39.5111C36.1122 38.8711 35.6914 38.2123 35.2994 37.5357C35.1389 37.2578 34.7082 37.5092 34.8687 37.7871Z" fill="white"/>
</svg>
