<svg width="50" height="47" viewBox="0 0 50 47" fill="none" xmlns="http://www.w3.org/2000/svg">
<path d="M19.5121 15.7777C19.7745 16.173 20.1212 16.5053 20.5274 16.7506C20.9335 16.9959 21.3889 17.1482 21.861 17.1965C22.333 17.2448 22.8098 17.1879 23.2572 17.0299C23.7046 16.8719 24.1114 16.6167 24.4484 16.2827L31.648 9.08371C31.8002 8.93312 32.0057 8.84866 32.2199 8.84866C32.434 8.84866 32.6395 8.93312 32.7918 9.08371C32.8689 9.15642 32.9303 9.24411 32.9723 9.3414C33.0142 9.4387 33.0359 9.54354 33.0359 9.64951C33.0359 9.75548 33.0142 9.86032 32.9723 9.95762C32.9303 10.0549 32.8689 10.1426 32.7918 10.2153L32.1013 10.9114C31.894 11.12 31.7779 11.4023 31.7785 11.6963C31.779 11.9904 31.8961 12.2723 32.104 12.4802L43.6588 24.055C43.7621 24.1586 43.8847 24.2408 44.0198 24.2969C44.1549 24.353 44.2997 24.3819 44.446 24.3819C44.5923 24.3819 44.7371 24.353 44.8722 24.2969C45.0073 24.2408 45.13 24.1586 45.2332 24.055L46.1815 23.1011C48.6267 20.6499 50 17.3288 50 13.8665C50 10.4041 48.6267 7.08305 46.1815 4.63178C43.6396 2.09983 40.1981 0.678223 36.6104 0.678223C33.0227 0.678223 29.5812 2.09983 27.0394 4.63178L20.0298 11.6352C19.4823 12.162 19.1321 12.8608 19.0378 13.6148C18.9436 14.3688 19.111 15.1323 19.5121 15.7777ZM9.72661 29.6007L10.0988 29.2385L6.26017 25.3871L5.81576 25.821C5.53141 26.1062 5.3139 26.451 5.17891 26.8304C5.04393 27.2099 4.99483 27.6146 5.03517 28.0153C5.0755 28.4161 5.20426 28.8029 5.41216 29.1478C5.62005 29.4928 5.90191 29.7873 6.2374 30.0101C6.77991 30.3455 7.41987 30.4875 8.05332 30.4132C8.68677 30.3389 9.27647 30.0525 9.72661 29.6007ZM11.2426 30.3679L10.8949 30.7056C10.8852 30.723 10.8728 30.7388 10.8582 30.7523L8.48614 33.1366C8.01974 33.5826 7.721 34.1755 7.64007 34.8157C7.55915 35.4559 7.70097 36.1045 8.04172 36.6525C8.26534 36.9878 8.56033 37.2696 8.90559 37.4776C9.25084 37.6857 9.63782 37.8148 10.0388 37.8557C10.4378 37.8917 10.8398 37.8419 11.218 37.7098C11.5961 37.5777 11.9417 37.3663 12.2315 37.0897L15.084 34.2249L11.2426 30.3679ZM16.2279 35.3553L13.3753 38.2201C13.113 38.4814 12.9071 38.7937 12.7701 39.1377C12.6332 39.4816 12.5683 39.85 12.5792 40.22C12.586 40.5902 12.67 40.9549 12.8258 41.2908C12.9816 41.6266 13.2059 41.9262 13.4841 42.1705C14.0426 42.6235 14.7507 42.8503 15.4685 42.806C16.1862 42.7616 16.8611 42.4494 17.3595 41.931L19.0932 40.1978C19.1054 40.1734 19.1177 40.1734 19.1299 40.1484L20.067 39.209L16.2279 35.3553ZM20.2493 41.3266C19.7389 41.8257 19.4337 42.4975 19.3935 43.2102C19.3533 43.9228 19.5811 44.6248 20.0321 45.178C20.2804 45.4501 20.5812 45.6691 20.9164 45.8219C21.2516 45.9746 21.6142 46.058 21.9825 46.0669C22.3521 46.0796 22.7204 46.0156 23.0641 45.879C23.4078 45.7424 23.7195 45.536 23.9796 45.273L25.0645 44.1909L21.222 40.3628L20.2493 41.3266Z" fill="white"/>
<path d="M30.0987 11.0846L24.6546 16.5287C24.1001 17.0798 23.3787 17.4317 22.603 17.5296C21.8274 17.6275 21.0412 17.4658 20.3671 17.0698C20.3338 17.0504 20.3032 17.027 20.2704 17.0065C19.8056 16.7182 19.4142 16.3257 19.1273 15.86C18.8404 15.3944 18.6657 14.8683 18.6172 14.3235C18.5687 13.7787 18.6477 13.2301 18.8478 12.7211C19.048 12.212 19.3639 11.7566 19.7705 11.3907L25.0851 6.07551L22.9875 3.97509C21.73 2.71501 20.2363 1.7153 18.592 1.0332C16.9477 0.3511 15.185 0 13.4048 0C11.6246 0 9.86187 0.3511 8.21754 1.0332C6.57321 1.7153 5.07955 2.71501 3.82207 3.97509H3.80984C1.36996 6.42392 0 9.73987 0 13.1967C0 16.6536 1.36996 19.9695 3.80984 22.4183L26.0101 44.6169C26.46 45.073 27.0507 45.3639 27.6865 45.4426C28.3223 45.5214 28.9661 45.3833 29.5137 45.0508C29.8515 44.8279 30.1357 44.533 30.3459 44.1872C30.5561 43.8414 30.687 43.4533 30.7292 43.0509C30.7648 42.6512 30.7134 42.2485 30.5784 41.8705C30.4435 41.4926 30.2283 41.1484 29.9476 40.8616H29.9354L19.9999 30.9183C19.9243 30.8448 19.8642 30.7568 19.8232 30.6596C19.7821 30.5625 19.761 30.458 19.761 30.3525C19.761 30.2471 19.7821 30.1426 19.8232 30.0455C19.8642 29.9483 19.9243 29.8603 19.9999 29.7867C20.0723 29.7069 20.1607 29.6432 20.2592 29.5995C20.3577 29.5559 20.4643 29.5334 20.5721 29.5334C20.6799 29.5334 20.7864 29.5559 20.885 29.5995C20.9835 29.6432 21.0718 29.7069 21.1443 29.7867L31.0792 39.7056H31.0914C31.1205 39.7334 31.1447 39.7658 31.1631 39.8017L33.414 42.0404C33.864 42.4965 34.4547 42.7874 35.0905 42.8661C35.7263 42.9449 36.3701 42.8068 36.9177 42.4743C37.2575 42.2548 37.5426 41.9604 37.7511 41.6138C37.9597 41.2672 38.0862 40.8774 38.1209 40.4744C38.162 40.0753 38.1142 39.6721 37.9812 39.2936C37.8482 38.9152 37.6332 38.5708 37.3516 38.2851H37.3393L24.9868 25.9331C24.8363 25.7782 24.7522 25.5708 24.7522 25.3548C24.7522 25.1389 24.8363 24.9314 24.9868 24.7765C25.1393 24.6262 25.3448 24.5419 25.559 24.5419C25.7731 24.5419 25.9787 24.6262 26.1312 24.7765L38.4931 37.1291V37.1535C38.7545 37.4104 39.0657 37.6112 39.4075 37.7435C39.7493 37.8758 40.1145 37.9369 40.4808 37.9229C40.85 37.9201 41.2145 37.8395 41.5505 37.6864C41.8865 37.5332 42.1864 37.3109 42.4307 37.0341C42.8868 36.4767 43.1154 35.7675 43.0706 35.0487C43.0258 34.3299 42.7109 33.6546 42.189 33.1582L40.5641 31.5211L29.982 20.9501C29.9061 20.875 29.8458 20.7856 29.8044 20.6871C29.763 20.5887 29.7414 20.483 29.7409 20.3762C29.7404 20.2694 29.7609 20.1635 29.8012 20.0647C29.8416 19.9658 29.9011 19.8758 29.9762 19.7999C30.0513 19.724 30.1407 19.6636 30.2392 19.6223C30.3376 19.5809 30.4433 19.5593 30.5501 19.5588C30.6569 19.5582 30.7628 19.5787 30.8616 19.6191C30.9605 19.6595 31.0505 19.7189 31.1264 19.7941L41.6957 30.3634C41.6957 30.3634 41.7085 30.3634 41.7085 30.3884C41.9723 30.6471 42.285 30.8505 42.6284 30.9868C42.9718 31.1231 43.339 31.1896 43.7084 31.1822C44.079 31.1726 44.4437 31.0864 44.7793 30.9289C45.115 30.7714 45.4145 30.5462 45.6588 30.2673C46.1143 29.7097 46.3425 29.0006 46.2977 28.282C46.2529 27.5633 45.9384 26.8881 45.4171 26.3914L30.0987 11.0846Z" fill="white"/>
</svg>
