<svg width="50" height="50" viewBox="0 0 50 50" fill="none" xmlns="http://www.w3.org/2000/svg">
<path d="M46.5187 23.5295L44.3628 25.0001L42.0952 23.5295C41.3903 15.2265 34.7736 8.60988 26.4707 7.90497L25.0001 5.63733L26.4707 3.48145C37.2099 4.20399 45.7961 12.7893 46.5187 23.5295ZM42.0952 26.4707L44.3628 25.0001L46.5187 26.4707C45.7961 37.2099 37.2109 45.7961 26.4707 46.5187L25.0001 44.6079L26.4707 42.0952C34.7736 41.3903 41.3903 34.7736 42.0952 26.4707ZM23.5295 42.0952L25.0001 44.6079L23.5295 46.5187C12.7893 45.7961 4.20399 37.2099 3.48145 26.4707L5.63733 25.0001L7.90497 26.4707C8.60988 34.7736 15.2265 41.3903 23.5295 42.0952ZM23.5295 3.48145L25.0001 5.63733L23.5295 7.90497C15.2265 8.60988 8.60988 15.2265 7.90497 23.5295L5.63733 25.0001L3.48145 23.5295C4.20399 12.7903 12.7893 4.20399 23.5295 3.48145Z" fill="white"/>
<path d="M49.5099 23.5293H39.2158V26.4705H49.5099V23.5293Z" fill="white"/>
<path d="M26.4705 39.7058H23.5293V49.5097H26.4705V39.7058Z" fill="white"/>
<path d="M10.7844 23.5293H0.490234V26.4705H10.7844V23.5293Z" fill="white"/>
<path d="M26.4705 0.490234H23.5293V10.7844H26.4705V0.490234Z" fill="white"/>
<path d="M25.0001 13.2354C31.4971 13.2354 36.7648 18.503 36.7648 25.0001C36.7648 31.4971 31.4971 36.7648 25.0001 36.7648C18.503 36.7648 13.2354 31.4971 13.2354 25.0001C13.2354 18.5325 18.4744 13.2354 25.0001 13.2354Z" fill="white"/>
<path d="M24.9996 30.8922C28.2537 30.8922 30.8917 28.2542 30.8917 25.0001C30.8917 21.7459 28.2537 19.1079 24.9996 19.1079C21.7454 19.1079 19.1074 21.7459 19.1074 25.0001C19.1074 28.2542 21.7454 30.8922 24.9996 30.8922Z" fill="white"/>
<path d="M21.1876 28.8128L20.9153 30.3922L19.1082 30.8922C17.6003 29.3844 16.667 27.3011 16.667 25.0001L18.203 23.9216L19.6082 25.0001C19.6082 26.4893 20.2121 27.8373 21.1876 28.8128ZM28.8131 28.8128L30.5232 28.9216L30.8925 30.8922C29.3846 32.4001 27.3013 33.3334 25.0003 33.3334L23.9219 31.6994L25.0003 30.3922C26.4895 30.3922 27.8376 29.7883 28.8131 28.8128ZM33.3337 25.0001L31.7977 26.1766L30.3925 25.0001C30.3925 23.5109 29.7886 22.1628 28.8131 21.1873L29.1834 19.3792L30.8925 19.1079C32.4003 20.6158 33.3337 22.6991 33.3337 25.0001ZM25.0003 16.6667L26.2748 18.3338L25.0003 19.6079C23.5111 19.6079 22.1631 20.2118 21.1876 21.1873L19.3141 20.6864L19.1082 19.1079C20.616 17.6001 22.6993 16.6667 25.0003 16.6667Z" fill="white"/>
<path d="M19.1082 19.1079L21.1876 21.1873C20.2121 22.1628 19.6082 23.5109 19.6082 25.0001H16.667C16.667 22.6991 17.6003 20.6158 19.1082 19.1079ZM25.0003 30.3922V33.3334C22.6993 33.3334 20.616 32.4001 19.1082 30.8922L21.1876 28.8128C22.1631 29.7883 23.5111 30.3922 25.0003 30.3922ZM30.3925 25.0001H33.3337C33.3337 27.3011 32.4003 29.3844 30.8925 30.8922L28.8131 28.8128C29.7886 27.8373 30.3925 26.4893 30.3925 25.0001ZM30.8925 19.1079L28.8131 21.1873C27.8376 20.2118 26.4895 19.6079 25.0003 19.6079V16.6667C27.3013 16.6667 29.3846 17.6001 30.8925 19.1079Z" fill="white"/>
<path d="M25 12.7451C18.2427 12.7451 12.7451 18.2427 12.7451 25C12.7451 31.7574 18.2427 37.2549 25 37.2549C31.7574 37.2549 37.2549 31.7574 37.2549 25C37.2549 18.2427 31.7574 12.7451 25 12.7451ZM25 36.2745C18.7833 36.2745 13.7255 31.2168 13.7255 25C13.7255 18.7833 18.7833 13.7255 25 13.7255C31.2168 13.7255 36.2745 18.7833 36.2745 25C36.2745 31.2168 31.2168 36.2745 25 36.2745Z" fill="white"/>
<path d="M25.9803 23.5294C26.2511 23.5294 26.4705 23.31 26.4705 23.0392C26.4705 22.7684 26.2511 22.549 25.9803 22.549H25.4901V22.0588C25.4901 21.788 25.2707 21.5686 24.9999 21.5686C24.7291 21.5686 24.5097 21.788 24.5097 22.0588V22.549H24.0195C23.7487 22.549 23.5293 22.7684 23.5293 23.0392V25C23.5293 25.2708 23.7487 25.4902 24.0195 25.4902H25.4901V26.4706H24.0195C23.7487 26.4706 23.5293 26.69 23.5293 26.9608C23.5293 27.2315 23.7487 27.451 24.0195 27.451H24.5097V27.9412C24.5097 28.2119 24.7291 28.4313 24.9999 28.4313C25.2707 28.4313 25.4901 28.2119 25.4901 27.9412V27.451H25.9803C26.2511 27.451 26.4705 27.2315 26.4705 26.9608V25C26.4705 24.7292 26.2511 24.5098 25.9803 24.5098H24.5097V23.5294H25.9803Z" fill="white"/>
<path d="M25.0003 16.1765C20.135 16.1765 16.1768 20.1361 16.1768 25C16.1768 29.8653 20.1364 33.8236 25.0003 33.8236C29.8656 33.8236 33.8238 29.864 33.8238 25C33.8238 20.1347 29.8642 16.1765 25.0003 16.1765ZM30.8781 30.1847L29.4891 28.7957C30.2582 27.8876 30.7566 26.7444 30.8607 25.4902H32.8266C32.7153 27.2843 31.9984 28.9161 30.8781 30.1847ZM17.174 25.4902H19.1399C19.2439 26.7443 19.7423 27.8876 20.5115 28.7957L19.1224 30.1847C18.0022 28.9161 17.2853 27.2843 17.174 25.4902ZM19.1224 19.8153L20.5115 21.2044C19.7423 22.1125 19.244 23.2557 19.1399 24.5098H17.174C17.2853 22.7158 18.0022 21.084 19.1224 19.8153ZM25.0003 29.902C22.2973 29.902 20.0983 27.703 20.0983 25C20.0983 22.2971 22.2973 20.0981 25.0003 20.0981C27.7032 20.0981 29.9022 22.2971 29.9022 25C29.9022 27.703 27.7032 29.902 25.0003 29.902ZM28.796 20.5112C27.8878 19.7421 26.7446 19.2438 25.4905 19.1397V17.1738C27.2845 17.285 28.9164 18.0019 30.185 19.1222L28.796 20.5112ZM24.5101 19.1397C23.2561 19.2437 22.1127 19.7421 21.2046 20.5112L19.8156 19.1222C21.0842 18.0019 22.7161 17.285 24.5101 17.1738V19.1397ZM21.2046 29.4889C22.1127 30.258 23.256 30.7563 24.5101 30.8604V32.8263C22.7161 32.715 21.0842 31.9982 19.8156 30.8779L21.2046 29.4889ZM25.4905 30.8604C26.7445 30.7564 27.8878 30.258 28.796 29.4889L30.185 30.8779C28.9164 31.9982 27.2845 32.715 25.4905 32.8263V30.8604ZM30.8606 24.5098C30.7566 23.2558 30.2581 22.1125 29.489 21.2044L30.878 19.8153C31.9983 21.084 32.7152 22.7158 32.8265 24.5098H30.8606Z" fill="white"/>
<path d="M49.5098 23.0392H46.9718C46.0341 12.4186 37.5799 3.96578 26.9608 3.02824V0.490196C26.9608 0.219412 26.7414 0 26.4706 0H23.5294C23.2586 0 23.0392 0.219412 23.0392 0.490196V3.02824C12.4186 3.96588 3.96578 12.4201 3.02824 23.0392H0.490196C0.219412 23.0392 0 23.2586 0 23.5294V26.4706C0 26.7414 0.219412 26.9608 0.490196 26.9608H3.02824C3.96598 37.5814 12.4201 46.0342 23.0392 46.9718V49.5098C23.0392 49.7806 23.2586 50 23.5294 50H26.4706C26.7414 50 26.9608 49.7806 26.9608 49.5098V46.9718C37.5814 46.0341 46.0342 37.5799 46.9718 26.9608H49.5098C49.7806 26.9608 50 26.7414 50 26.4706V23.5294C50 23.2586 49.7806 23.0392 49.5098 23.0392ZM45.9875 23.0392H42.539C41.6313 14.8596 35.1455 8.36931 26.9608 7.46098V4.01255C37.0084 4.94108 45.059 12.9917 45.9875 23.0392ZM39.2157 26.9608H41.5521C40.6566 34.6365 34.6364 40.6567 26.9608 41.5521V39.7059C26.9608 39.4351 26.7414 39.2157 26.4706 39.2157H23.5294C23.2586 39.2157 23.0392 39.4351 23.0392 39.7059V41.5521C15.3635 40.6567 9.34333 34.6365 8.44794 26.9608H10.7843C11.0551 26.9608 11.2745 26.7414 11.2745 26.4706V23.5294C11.2745 23.2586 11.0551 23.0392 10.7843 23.0392H8.44794C9.34333 15.3635 15.3635 9.34333 23.0392 8.44794V10.7843C23.0392 11.0551 23.2586 11.2745 23.5294 11.2745H26.4706C26.7414 11.2745 26.9608 11.0551 26.9608 10.7843V8.44794C34.6365 9.34343 40.6567 15.3636 41.5521 23.0392H39.2157C38.9449 23.0392 38.7255 23.2586 38.7255 23.5294V26.4706C38.7255 26.7414 38.9449 26.9608 39.2157 26.9608ZM24.0196 0.980392H25.9804V10.2941H24.0196V0.980392ZM23.0392 4.01255V7.46098C14.8596 8.36873 8.36931 14.8545 7.46098 23.0392H4.01255C4.94108 12.9916 12.9917 4.94098 23.0392 4.01255ZM0.980392 24.0196H10.2941V25.9804H0.980392V24.0196ZM4.01255 26.9608H7.46098C8.36873 35.1404 14.8545 41.6307 23.0392 42.539V45.9875C12.9917 45.059 4.94108 37.0084 4.01255 26.9608ZM25.9804 49.0196H24.0196V40.1961H25.9804V49.0196ZM26.9608 45.9875V42.539C35.1404 41.6313 41.6307 35.1455 42.539 26.9608H45.9875C45.0589 37.0084 37.0083 45.059 26.9608 45.9875ZM49.0196 25.9804H39.7059V24.0196H49.0196V25.9804Z" fill="white"/>
</svg>
