<svg width="45" height="45" viewBox="0 0 45 45" fill="none" xmlns="http://www.w3.org/2000/svg">
<path d="M40.5 22.5H36V31.5H40.5V22.5Z" fill="white"/>
<path d="M24.75 22.5H20.25V31.5H24.75V22.5Z" fill="white"/>
<path d="M9 22.5H4.5V31.5H9V22.5Z" fill="white"/>
<path d="M24.75 20.25H20.25V11.25H24.75V20.25Z" fill="#9B9B9B"/>
<path d="M40.5 20.25H4.5V24.75H40.5V20.25Z" fill="white"/>
<path d="M36 0H9V11.25H36V0Z" fill="white"/>
<path d="M36 0H22.5V11.25H36V0Z" fill="white"/>
<path d="M45 31.5H31.5V45H45V31.5Z" fill="white"/>
<path d="M13.5 31.5H0V45H13.5V31.5Z" fill="white"/>
<path d="M13.5 31.5H6.75V45H13.5V31.5Z" fill="white"/>
<path d="M29.25 31.5H15.75V45H29.25V31.5Z" fill="white"/>
<path d="M29.25 31.5H22.5V45H29.25V31.5Z" fill="white"/>
<path d="M45 31.5H38.25V45H45V31.5Z" fill="white"/>
</svg>
